# xmcd
#
# Track frame offsets:
#	150
#	16650
#	44250
#	101625
#	142800
#	217200
#
# Disc length: 3136
#
# Revision: 1
# Processed by: cddbd v1.5.1PL0 Copyright (c) Steve Scherf et al.
# Submitted via: ExactAudioCopy v0.95a5
# Normalized: r0:TRMNUM
#
DISCID=4b0c3e06
DTITLE=LED ZEPPELIN - MILWAUKEE STATE FAIR 07-25-1969
DYEAR=1969
DGENRE=Classic Rock
TTITLE0=TRAIN KEPT A  ROLLIN'
TTITLE1=I CAN'T QUIT YOU
TTITLE2=DAZED and CONFUSED
TTITLE3=YOU SHOOK ME
TTITLE4=HOW MANY MORE TIMES
TTITLE5=COMMUNICATION BREAKDOWN
EXTD=
EXTT0=
EXTT1=
EXTT2=
EXTT3=
EXTT4=
EXTT5=
PLAYORDER=
